<svg xmlns="http://www.w3.org/2000/svg" xmlns:xlink="http://www.w3.org/1999/xlink" fill="none" version="1.1" width="16.9814453125" height="16.981201171875" viewBox="0 0 16.9814453125 16.981201171875"><g><g><g><g><path d="M5.702144675,9.339291375Q5.682138175,9.340234375,5.662109375,9.340234375Q5.578391675,9.340234375,5.496282375,9.323901375Q5.414173375,9.307569375,5.336828375,9.275532375000001Q5.259483375,9.243494375000001,5.189874375,9.196983375Q5.120266375,9.150472375,5.061068375,9.091275375Q5.001871375,9.032077375,4.955360375,8.962469375Q4.908849375,8.892860375,4.876811375,8.815515375Q4.844774375,8.738170375,4.828442375,8.656061375Q4.812109375,8.573952075,4.812109375,8.490234375Q4.812109375,8.406516675,4.828442375,8.324407375Q4.844774375,8.242298375,4.876811375,8.164953375Q4.908849375,8.087608375,4.955360375,8.017999375Q5.001871375,7.948391375,5.061068375,7.889193375Q5.120266375,7.829996375,5.189874375,7.783485375Q5.259483375,7.736974375,5.336828375,7.704936375Q5.414173375,7.672899375,5.496282375,7.656567375Q5.578391675,7.640234375,5.662109375,7.640234375Q5.682138175,7.640234375,5.702144675,7.641177375L11.282449374999999,7.641177375Q11.302459375,7.640234375,11.322489375,7.640234375Q11.406199375,7.640234375,11.488309375,7.656567375Q11.570419375,7.672899375,11.647769375,7.704936375Q11.725109374999999,7.736974375,11.794719375,7.783485375Q11.864329375,7.829996375,11.923529375000001,7.889193375Q11.982719375,7.948391375,12.029239375,8.017999375Q12.075749375000001,8.087608375,12.107779375,8.164953375Q12.139819375,8.242298375,12.156149375,8.324407375Q12.172489375,8.406516675,12.172489375,8.490234375Q12.172489375,8.573952075,12.156149375,8.656061375Q12.139819375,8.738170375,12.107779375,8.815515375Q12.075749375000001,8.892860375,12.029239375,8.962469375Q11.982719375,9.032077375,11.923529375000001,9.091275375Q11.864329375,9.150472375,11.794719375,9.196983375Q11.725109374999999,9.243494375000001,11.647769375,9.275532375000001Q11.570419375,9.307569375,11.488309375,9.323901375Q11.406199375,9.340234375,11.322489375,9.340234375Q11.302459375,9.340234375,11.282449374999999,9.339291375L5.702144675,9.339291375Z" fill-rule="evenodd" fill="#A5FEEE" fill-opacity="1"/></g><g><path d="M9.33733825,5.70019155Q9.33828125,5.68018505,9.33828125,5.66015625Q9.33828125,5.57643855,9.32194825,5.49432925Q9.30561625,5.41222025,9.273579250000001,5.33487525Q9.241541250000001,5.25753025,9.19503025,5.18792125Q9.14851925,5.11831325,9.08932225,5.05911525Q9.03012425,4.99991825,8.96051625,4.95340725Q8.89090725,4.90689625,8.81356225,4.87485825Q8.73621725,4.84282125,8.65410825,4.82648925Q8.57199895,4.81015625,8.48828125,4.81015625Q8.40456355,4.81015625,8.32245425,4.82648925Q8.24034525,4.84282125,8.16300025,4.87485825Q8.08565525,4.90689625,8.01604625,4.95340725Q7.94643825,4.99991825,7.88724025,5.05911525Q7.82804325,5.11831325,7.78153225,5.18792125Q7.73502125,5.25753025,7.70298325,5.33487525Q7.67094625,5.41222025,7.65461425,5.49432925Q7.63828125,5.57643855,7.63828125,5.66015625Q7.63828125,5.68018505,7.63922425,5.70019155L7.63922425,11.280496249999999Q7.63828125,11.30050625,7.63828125,11.32053625Q7.63828125,11.40424625,7.65461425,11.48635625Q7.67094625,11.56846625,7.70298325,11.64581625Q7.73502125,11.723156249999999,7.78153225,11.79276625Q7.82804325,11.86237625,7.88724025,11.921576250000001Q7.94643825,11.98076625,8.01604625,12.02728625Q8.08565525,12.073796250000001,8.16300025,12.10582625Q8.24034525,12.13786625,8.32245425,12.15419625Q8.40456355,12.17053625,8.48828125,12.17053625Q8.57199895,12.17053625,8.65410825,12.15419625Q8.73621725,12.13786625,8.81356225,12.10582625Q8.89090725,12.073796250000001,8.96051625,12.02728625Q9.03012425,11.98076625,9.08932225,11.921576250000001Q9.14851925,11.86237625,9.19503025,11.79276625Q9.241541250000001,11.723156249999999,9.273579250000001,11.64581625Q9.30561625,11.56846625,9.32194825,11.48635625Q9.33828125,11.40424625,9.33828125,11.32053625Q9.33828125,11.30050625,9.33733825,11.280496249999999L9.33733825,5.70019155Z" fill-rule="evenodd" fill="#A5FEEE" fill-opacity="1"/></g><g><path d="M0.566958625,6.36835734375L0.566958625,10.61363734375Q0.566958625,13.61862734375,1.965405625,15.01712734375Q3.3638556250000002,16.41552734375,6.368845625,16.41552734375L10.614125625,16.41552734375Q13.619115625,16.41552734375,15.017615625,15.01712734375Q16.416015625,13.61862734375,16.416015625,10.61364734375L16.416015625,6.36835734375Q16.416015625,3.3633673437500002,15.017615625,1.96491734375Q13.619115625,0.56647034375,10.614135625,0.56647034375L6.368845625,0.56647034375Q3.3638556250000002,0.56647034375,1.965405625,1.96491734375Q0.566958625,3.3633673437500002,0.566958625,6.36835734375ZM3.166155625,13.81632734375Q2.265072625,12.91522734375,2.265072625,10.61363734375L2.265072625,6.36835734375Q2.265072625,4.06674734375,3.166155625,3.16566734375Q4.067235625,2.26458434375,6.368845625,2.26458434375L10.614135625,2.26458434375Q12.915715625,2.26458434375,13.816815625,3.16566734375Q14.717915625,4.06674734375,14.717915625,6.36835734375L14.717915625,10.61364734375Q14.717915625,12.91522734375,13.816815625,13.81632734375Q12.915715625,14.71742734375,10.614125625,14.71742734375L6.368845625,14.71742734375Q4.067235625,14.71742734375,3.166155625,13.81632734375Z" fill-rule="evenodd" fill="#A5FEEE" fill-opacity="1"/></g></g></g></g></svg>