<svg xmlns="http://www.w3.org/2000/svg" xmlns:xlink="http://www.w3.org/1999/xlink" fill="none" version="1.1" width="17" height="17" viewBox="0 0 17 17"><defs><radialGradient cx="0" cy="0" r="1" gradientUnits="userSpaceOnUse" id="master_svg0_159_8344" gradientTransform="translate(8.500000894069672 16) rotate(90) scale(14.999999441651592 25.903593529650585)"><stop offset="0%" stop-color="#FFFFFF" stop-opacity="1"/><stop offset="53.50000262260437%" stop-color="#FFFFFF" stop-opacity="0"/><stop offset="100%" stop-color="#FFFFFF" stop-opacity="0"/></radialGradient><radialGradient cx="0" cy="0" r="1" gradientUnits="userSpaceOnUse" id="master_svg1_21_01571" gradientTransform="translate(-2.187500983476639 -0.5000033751130104) rotate(42.21484095837504) scale(24.556778339418184 204.40056146034215)"><stop offset="0%" stop-color="#C3FB31" stop-opacity="1"/><stop offset="100%" stop-color="#09F4E6" stop-opacity="1"/></radialGradient><radialGradient cx="0" cy="0" r="1" gradientUnits="userSpaceOnUse" id="master_svg2_159_8355" gradientTransform="translate(8.239920760114416 11.922574043273926) rotate(90) scale(6.415323495484395 11.078662558266569)"><stop offset="0%" stop-color="#FFFFFF" stop-opacity="1"/><stop offset="53.50000262260437%" stop-color="#FFFFFF" stop-opacity="0"/><stop offset="100%" stop-color="#FFFFFF" stop-opacity="0"/></radialGradient><radialGradient cx="0" cy="0" r="1" gradientUnits="userSpaceOnUse" id="master_svg3_21_01571" gradientTransform="translate(3.6690017964329655 4.86571649206596) rotate(42.21484095837504) scale(10.502645527893808 87.41971821582636)"><stop offset="0%" stop-color="#C3FB31" stop-opacity="1"/><stop offset="100%" stop-color="#09F4E6" stop-opacity="1"/></radialGradient></defs><g><g><path d="M6.25,16C6.25,16,10.75,16,10.75,16C14.5,16,16,14.5,16,10.75C16,10.75,16,6.25,16,6.25C16,2.5,14.5,1,10.75,1C10.75,1,6.25,1,6.25,1C2.5,1,1,2.5,1,6.25C1,6.25,1,10.75,1,10.75C1,14.5,2.5,16,6.25,16Z" fill="url(#master_svg0_159_8344)" fill-opacity="1" style="mix-blend-mode:soft-light"/><path d="M6.25,16C6.25,16,10.75,16,10.75,16C14.5,16,16,14.5,16,10.75C16,10.75,16,6.25,16,6.25C16,2.5,14.5,1,10.75,1C10.75,1,6.25,1,6.25,1C2.5,1,1,2.5,1,6.25C1,6.25,1,10.75,1,10.75C1,14.5,2.5,16,6.25,16Z" fill="#000000" fill-opacity="0.20000000298023224"/><path d="M0,6.25L0,10.75Q0,13.9767,1.5116429999999998,15.4884Q3.02329,17,6.25,17L10.75,17Q13.9767,17,15.4884,15.4884Q17,13.9767,17,10.75L17,6.25Q17,3.02329,15.4884,1.5116429999999998Q13.9767,0,10.75,0L6.25,0Q3.02329,0,1.5116429999999998,1.5116429999999998Q0,3.02329,0,6.25ZM2.92586,14.0741Q2,13.1483,2,10.75L2,6.25Q2,3.85171,2.92586,2.92586Q3.85171,2,6.25,2L10.75,2Q13.1483,2,14.0741,2.92586Q15,3.85171,15,6.25L15,10.75Q15,13.1483,14.0741,14.0741Q13.1483,15,10.75,15L6.25,15Q3.85171,15,2.92586,14.0741Z" fill-rule="evenodd" fill="url(#master_svg1_21_01571)" fill-opacity="1"/></g><g><path d="M8.2399185105896,8.002210308990477L10.7348785105896,5.507250549331479L11.4475785105896,6.219952308990479L8.9526185105896,8.71491030899048L11.4475785105896,11.209870308990478L10.7348785105896,11.92257030899048L8.2399185105896,9.427610308990479L5.7449605105896,11.92257030899048L5.0322587509306,11.209870308990478L7.5272185105895995,8.71491030899048L5.0322585105896,6.219952308990479L5.7449605105896,5.5072503089904785L8.2399185105896,8.002210308990477Z" fill="url(#master_svg2_159_8355)" fill-opacity="1" style="mix-blend-mode:soft-light"/><path d="M8.2399185105896,8.002210308990477L10.7348785105896,5.507250549331479L11.4475785105896,6.219952308990479L8.9526185105896,8.71491030899048L11.4475785105896,11.209870308990478L10.7348785105896,11.92257030899048L8.2399185105896,9.427610308990479L5.7449605105896,11.92257030899048L5.0322587509306,11.209870308990478L7.5272185105895995,8.71491030899048L5.0322585105896,6.219952308990479L5.7449605105896,5.5072503089904785L8.2399185105896,8.002210308990477Z" fill="#A3A9D9" fill-opacity="0.9490196108818054"/><path d="M8.2399185105896,7.295100308990478L6.0985085105896,5.153697308990479L5.7449595105896,4.800143308990479L4.3251515105896,6.219952308990479L6.820108510589599,8.71491030899048L4.3251515105896,11.209870308990478L5.7449605105896,12.629680308990478L8.2399185105896,10.134720308990477L10.7348785105896,12.629680308990478L12.1546885105896,11.209870308990478L9.659728510589598,8.71491030899048L12.1546885105896,6.219952308990479L10.7348785105896,4.800143308990479L8.2399185105896,7.295100308990478ZM5.7449605105896,6.214357308990478L8.2399185105896,8.709320308990478L10.7348785105896,6.214357308990478L10.7404785105896,6.219952308990479L8.2455185105896,8.71491030899048L10.7404785105896,11.209870308990478L10.7348785105896,11.21547030899048L8.2399185105896,8.720510308990479L5.7449605105896,11.21547030899048L5.739365510589599,11.209870308990478L8.234328510589599,8.71491030899048L5.739365510589599,6.219952308990479L5.7449605105896,6.214357308990478Z" fill-rule="evenodd" fill="url(#master_svg3_21_01571)" fill-opacity="1"/></g></g></svg>