<svg xmlns="http://www.w3.org/2000/svg" xmlns:xlink="http://www.w3.org/1999/xlink" fill="none" version="1.1" width="15.978515625" height="15.432861328125" viewBox="0 0 15.978515625 15.432861328125"><defs><linearGradient x1="0.5" y1="0" x2="0.5" y2="1" id="master_svg0_21_10204"><stop offset="0%" stop-color="#FFFFFF" stop-opacity="1"/><stop offset="100%" stop-color="#FFDB29" stop-opacity="1"/></linearGradient><linearGradient x1="0.5" y1="0" x2="0.5" y2="1" id="master_svg1_21_10204"><stop offset="0%" stop-color="#FFFFFF" stop-opacity="1"/><stop offset="100%" stop-color="#FFDB29" stop-opacity="1"/></linearGradient><linearGradient x1="0.5" y1="0" x2="0.5" y2="1" id="master_svg2_21_10204"><stop offset="0%" stop-color="#FFFFFF" stop-opacity="1"/><stop offset="100%" stop-color="#FFDB29" stop-opacity="1"/></linearGradient></defs><g><g><g><g><path d="M5,6.966552734375L10,6.966552734375Q10.07387,6.966552734375,10.14632,6.980963734375Q10.21877,6.995374734375,10.28701,7.023642734375Q10.355260000000001,7.051911734375,10.41668,7.092950734375Q10.478100000000001,7.133989734375,10.53033,7.186222734375Q10.58256,7.238455734375,10.6236,7.299874734375Q10.66464,7.361294734375,10.692910000000001,7.429539734375Q10.72118,7.497785734375,10.73559,7.570234734375Q10.75,7.642684234375,10.75,7.716552734375Q10.75,7.790421234375,10.73559,7.862870734375Q10.72118,7.935319734375,10.692910000000001,8.003565734375Q10.66464,8.071810734375,10.6236,8.133230734375Q10.58256,8.194649734375,10.53033,8.246882734375Q10.478100000000001,8.299115734375,10.41668,8.340154734375Q10.355260000000001,8.381193734375,10.28701,8.409462734375Q10.21877,8.437730734375,10.14632,8.452141734375001Q10.07387,8.466552734375,10,8.466552734375L5,8.466552734375Q4.9261315,8.466552734375,4.853682,8.452141734375001Q4.781233,8.437730734375,4.712987,8.409462734375Q4.644742,8.381193734375,4.583322,8.340154734375Q4.521903,8.299115734375,4.46967,8.246882734375Q4.417437,8.194649734375,4.376398,8.133230734375Q4.335359,8.071810734375,4.30709,8.003565734375Q4.278822,7.935319734375,4.264411,7.862870734375Q4.25,7.790421234375,4.25,7.716552734375Q4.25,7.642684234375,4.264411,7.570234734375Q4.278822,7.497785734375,4.30709,7.429539734375Q4.335359,7.361294734375,4.376398,7.299874734375Q4.417437,7.238455734375,4.46967,7.186222734375Q4.521903,7.133989734375,4.583322,7.092950734375Q4.644742,7.051911734375,4.712987,7.023642734375Q4.781233,6.995374734375,4.853682,6.980963734375Q4.9261315,6.966552734375,5,6.966552734375Z" fill-rule="evenodd" fill="url(#master_svg0_21_10204)" fill-opacity="1"/></g><g><path d="M6.75,5.216552734375Q6.75,5.142684234375,6.764411,5.070234734375Q6.778822,4.997785734375,6.80709,4.929539734375Q6.835359,4.861294734375,6.876398,4.799874734375Q6.917437,4.738455734375,6.96967,4.686222734375Q7.021903,4.633989734375,7.083322,4.592950734375Q7.144742,4.551911734375,7.212987,4.523642734375Q7.281233,4.495374734375,7.353682,4.480963734375Q7.4261315,4.466552734375,7.5,4.466552734375Q7.5738685,4.466552734375,7.646318,4.480963734375Q7.718767,4.495374734375,7.787013,4.523642734375Q7.855258,4.551911734375,7.916678,4.592950734375Q7.978097,4.633989734375,8.03033,4.686222734375Q8.082563,4.738455734375,8.123602,4.799874734375Q8.164641,4.861294734375,8.19291,4.929539734375Q8.221178,4.997785734375,8.235589000000001,5.070234734375Q8.25,5.142684234375,8.25,5.216552734375L8.25,10.216552734375Q8.25,10.290422734375,8.235589000000001,10.362872734375Q8.221178,10.435322734375,8.19291,10.503562734375Q8.164641,10.571812734375001,8.123602,10.633232734375Q8.082563,10.694652734375001,8.03033,10.746882734375Q7.978097,10.799112734375,7.916678,10.840152734375Q7.855258,10.881192734375,7.787013,10.909462734375001Q7.718767,10.937732734375,7.646318,10.952142734375Q7.5738685,10.966552734375,7.5,10.966552734375Q7.4261315,10.966552734375,7.353682,10.952142734375Q7.281233,10.937732734375,7.212987,10.909462734375001Q7.144742,10.881192734375,7.083322,10.840152734375Q7.021903,10.799112734375,6.96967,10.746882734375Q6.917437,10.694652734375001,6.876398,10.633232734375Q6.835359,10.571812734375001,6.80709,10.503562734375Q6.778822,10.435322734375,6.764411,10.362872734375Q6.75,10.290422734375,6.75,10.216552734375L6.75,5.216552734375Z" fill-rule="evenodd" fill="url(#master_svg1_21_10204)" fill-opacity="1"/></g><g><path d="M0.5,5.841552734375L0.5,9.591552734375Q0.5,12.245952734375,1.735295,13.481252734375Q2.97059,14.716552734375,5.625,14.716552734375L9.375,14.716552734375Q12.0294,14.716552734375,13.2647,13.481252734375Q14.5,12.245952734375,14.5,9.591552734375L14.5,5.841552734375Q14.5,3.187142734375,13.2647,1.951847734375Q12.0294,0.716552734375,9.375,0.716552734375L5.625,0.716552734375Q2.97059,0.716552734375,1.735295,1.951847734375Q0.5,3.187142734375,0.5,5.841552734375ZM2.79596,12.420552734375Q2,11.624652734375,2,9.591552734375L2,5.841552734375Q2,3.808462734375,2.79595,3.012512734375Q3.59191,2.216552734375,5.625,2.216552734375L9.375,2.216552734375Q11.4081,2.216552734375,12.204,3.012502734375Q13,3.808462734375,13,5.841552734375L13,9.591552734375Q13,11.624652734375,12.204,12.420552734375Q11.4081,13.216552734375,9.375,13.216552734375L5.625,13.216552734375Q3.59191,13.216552734375,2.79596,12.420552734375Z" fill-rule="evenodd" fill="url(#master_svg2_21_10204)" fill-opacity="1"/></g></g></g></g></svg>