<svg xmlns="http://www.w3.org/2000/svg" xmlns:xlink="http://www.w3.org/1999/xlink" fill="none" version="1.1" width="25.161287307739258" height="25.161287307739258" viewBox="0 0 25.161287307739258 25.161287307739258"><defs><clipPath id="master_svg0_21_05091"><rect x="0" y="0" width="25.161287307739258" height="25.161287307739258" rx="0"/></clipPath></defs><g clip-path="url(#master_svg0_21_05091)"><g><ellipse cx="12.581274032592773" cy="12.580785751342773" rx="9.225805282592773" ry="9.225805282592773" fill="#FFFFFF" fill-opacity="1"/></g><g><g><path d="M17.948779480590822,12.55239135559082C17.94852948059082,12.47541135559082,17.94674948059082,12.398851355590821,17.94329948059082,12.322651355590821C17.94329948059082,12.322651355590821,17.94329948059082,7.978458355590821,17.94329948059082,7.978458355590821C17.94329948059082,7.978458355590821,16.742349480590818,9.179451355590821,16.742349480590818,9.179451355590821C15.759429480590821,7.976285355590821,14.26416948059082,7.20781135559082,12.58933948059082,7.20781135559082C10.84639948059082,7.20781135559082,9.29796348059082,8.03977835559082,8.31913948059082,9.32821135559082C8.31913948059082,9.32821135559082,10.28764948059082,11.317481355590822,10.28764948059082,11.317481355590822C10.48056948059082,10.960691355590821,10.75461948059082,10.65424135559082,11.08505948059082,10.422791355590821C11.428729480590821,10.15459135559082,11.915679480590821,9.93530135559082,12.58927948059082,9.93530135559082C12.670649480590821,9.93530135559082,12.73345948059082,9.94481135559082,12.779609480590821,9.96273135559082C13.61419948059082,10.02860135559082,14.33762948059082,10.48921135559082,14.76357948059082,11.15774135559082C14.76357948059082,11.15774135559082,13.370169480590821,12.55119135559082,13.370169480590821,12.55119135559082C15.13509948059082,12.54426135559082,17.12891948059082,12.54019135559082,17.94862948059082,12.55208135559082" fill="#1C3AA9" fill-opacity="1"/></g><g><path d="M12.55810073059082,7.20829963684082C12.48112073059082,7.20855524484082,12.40456073059082,7.21033173684082,12.32836073059082,7.2137824468408205C12.32836073059082,7.2137824468408205,7.98429473059082,7.2137824468408205,7.98429473059082,7.2137824468408205C7.98429473059082,7.2137824468408205,9.18525073059082,8.41476963684082,9.18525073059082,8.41476963684082C7.98212273059082,9.39770963684082,7.21367073059082,10.89301963684082,7.21367073059082,12.56789963684082C7.21367073059082,14.31088963684082,8.04562673059082,15.859369636840821,9.33401073059082,16.83821963684082C9.33401073059082,16.83821963684082,11.323220730590819,14.869649636840819,11.323220730590819,14.869649636840819C10.96644073059082,14.67672963684082,10.66000073059082,14.40266963684082,10.42856073059082,14.07221963684082C10.16038073059082,13.728539636840821,9.94109073059082,13.241579636840822,9.94109073059082,12.56795963684082C9.94109073059082,12.486579636840819,9.950600730590821,12.42376963684082,9.96851073059082,12.37761963684082C10.03438073059082,11.543009636840821,10.49497073059082,10.81955963684082,11.16348073059082,10.39358963684082C11.16348073059082,10.39358963684082,12.556890730590819,11.78703963684082,12.556890730590819,11.78703963684082C12.54997073059082,10.02205963684082,12.54589073059082,8.02818863684082,12.55779073059082,7.20845296684082" fill="#4285F4" fill-opacity="1"/></g><g><path d="M7.21367073059082,12.56767463684082C7.21392633159082,12.64465363684082,7.21570277059082,12.72121863684082,7.219153380590821,12.797415636840821C7.219153380590821,12.797415636840821,7.219153380590821,17.14160463684082,7.219153380590821,17.14160463684082C7.219153380590821,17.14160463684082,8.420110730590821,15.94062463684082,8.420110730590821,15.94062463684082C9.403020730590821,17.14378463684082,10.89829073059082,17.91225463684082,12.57311073059082,17.91225463684082C14.31606073059082,17.91225463684082,15.86449073059082,17.08028463684082,16.843310730590822,15.79185463684082C16.843310730590822,15.79185463684082,14.87480073059082,13.80258463684082,14.87480073059082,13.80258463684082C14.681890730590819,14.15937463684082,14.40783073059082,14.46582463684082,14.077390730590821,14.69727463684082C13.733720730590822,14.96547463684082,13.246780730590821,15.184764636840821,12.57318073059082,15.184764636840821C12.491800730590821,15.184764636840821,12.42899073059082,15.17525463684082,12.382850730590821,15.15733463684082C11.54826073059082,15.09146463684082,10.82483073059082,14.63085463684082,10.39887073059082,13.96232463684082C10.39887073059082,13.96232463684082,11.792280730590821,12.56887835684082,11.792280730590821,12.56887835684082C10.02735073059082,12.57580534684082,8.03353673059082,12.579869536840821,7.21382429959082,12.567983733840821" fill="#ABABAB" fill-opacity="1"/></g></g></g></svg>