<svg xmlns="http://www.w3.org/2000/svg" xmlns:xlink="http://www.w3.org/1999/xlink" fill="none" version="1.1" width="25.161287307739258" height="25.161287307739258" viewBox="0 0 25.161287307739258 25.161287307739258"><defs><clipPath id="master_svg0_21_05120"><rect x="0" y="0" width="25.161287307739258" height="25.161287307739258" rx="0"/></clipPath><clipPath id="master_svg1_21_05122"><rect x="7.580078125" y="7.58056640625" width="11" height="10.566604614257812" rx="0"/></clipPath></defs><g clip-path="url(#master_svg0_21_05120)"><g><ellipse cx="12.581274032592773" cy="12.580785751342773" rx="9.225805282592773" ry="9.225805282592773" fill="#FFFFFF" fill-opacity="1"/></g><g clip-path="url(#master_svg1_21_05122)"><g><path d="M13.140385625,18.14684296875L9.615395625,18.14684296875C9.084025625,18.14684296875,8.646432625,17.93814296875,8.298204625,17.54765296875C8.038578625,17.259892968750002,7.886192825,16.891362968750002,7.866771025,16.504282968749997C7.8535638439,16.30662296875,7.8535638439,16.10851296875,7.866771025,15.91084296875C7.870292925,15.86594296875,7.866771025,15.82015296875,7.866771025,15.77481296875C7.850922515,13.617642968750001,7.852243215,11.460042968749999,7.855765115,9.30243296875C7.855765115,8.86880296875,8.015131625,8.48975396875,8.303927625,8.16661896875C8.572851625,7.86008596875,8.942075625,7.65924456875,9.345525625,7.60003296875C9.412445625,7.58858677875,9.480245625,7.58242345375,9.548035625,7.58154296875C11.935445625,7.581542969537273,14.322415625,7.58242344475,16.709835625,7.58374415875C17.091075625000002,7.58374415875,17.431825625000002,7.72109796875,17.728545625000002,7.95794596875C18.070615625000002,8.22457096875,18.300015625,8.61001296875,18.371315625,9.03785296875C18.391115624999998,9.13910296875,18.400815625,9.24212296875,18.400815625,9.34513296875C18.388315625,10.31653296875,18.386115625000002,11.28805296875,18.394215625,12.25951296875C18.399415625,12.79968296875,18.388915625,13.34029296875,18.403015625000002,13.880462968749999C18.424515624999998,14.723082968749999,18.423215624999997,15.56394296875,18.408315625,16.40479296875C18.395015625,17.14835296875,18.026615624999998,17.684142968750002,17.352575625,18.002842968750002C17.130255625,18.10724296875,16.896935624999998,18.14814296875,16.651715625,18.14724296875C15.481305625000001,18.14554296875,14.310865625,18.14544296875,13.140385625,18.14684296875ZM16.020415625,13.09112296875L16.018215625,13.09112296875L16.018215625,12.03895296875C16.018215625,11.80562296875,15.936335625,11.61148296875,15.731185625,11.48381296875C15.640495625,11.42702296875,15.547165625,11.37375296875,15.454715625,11.32092296875L13.491245625000001,10.18863296875C13.349055625,10.10586296875,13.198935625,10.06184296875,13.031645625,10.08605296875C12.909695625000001,10.103662968750001,12.807125625000001,10.16398296875,12.703665625,10.22341296875C12.424995625000001,10.383222968750001,12.147645625,10.54566296875,11.869855625,10.70547296875C11.426095625,10.96213296875,10.979695625,11.215712968750001,10.539455625,11.47589296875C10.339585625,11.59387296875,10.240095625,11.77569296875,10.240975625,12.01078296875C10.240975625,12.40479296875,10.244495624999999,12.79880296875,10.240975625,13.192812968750001C10.236575625,13.654622968750001,10.259465625,14.11599296875,10.252855625,14.57780296875C10.249775625,14.813772968750001,10.343985625,14.999112968750001,10.541215625,15.125902968750001C10.642915625,15.191932968749999,10.749885625000001,15.250052968750001,10.854665624999999,15.31080296875C11.007865625,15.399732968750001,11.160625625,15.48910296875,11.315595625,15.574942968750001C11.386035625,15.61456296875,11.412005624999999,15.59827296875,11.422135625,15.51947296875C11.424755625,15.49285296875,11.425785625,15.46609296875,11.425215625,15.43935296875L11.425215625,14.59673296875C11.420345625,14.510092968750001,11.466445625,14.42856296875,11.543195625,14.388062968749999L13.026795625,13.53620296875C13.092785625000001,13.49840296875,13.174135625,13.499582968750001,13.238995625000001,13.539282968750001C13.498735625,13.681042968749999,13.750545625,13.83644296875,14.012495625,13.97644296875C14.240095625,14.096622968750001,14.457135625,14.23618296875,14.684295625,14.35504296875C14.817245625,14.425042968749999,14.863035625,14.52453296875,14.861705624999999,14.665412968750001C14.858625625,14.947602968750001,14.860385625,15.23023296875,14.861705624999999,15.51243296875C14.861705624999999,15.59299296875,14.895605625,15.61148296875,14.967805625,15.57582296875C14.978815625,15.57054296875,14.989815625,15.56394296875,15.000385625,15.55821296875C15.214335625,15.43407296875,15.426975625,15.30992296875,15.643135625,15.18885296875C15.906395625,15.042252968749999,16.043305625000002,14.825222968750001,16.034065625,14.51969296875C16.029655625,14.39202296875,16.026575625,14.26435296875,16.024815625000002,14.13668296875C16.017335625,13.788022968749999,16.020415625,13.43979296875,16.020415625,13.09112296875Z" fill="#6AD3B2" fill-opacity="1" style="mix-blend-mode:passthrough"/></g><g><path d="M14.89557,12.57323703125C14.89557,12.63839703125,14.89733,12.70398703125,14.89557,12.76958703125C14.89249,12.87083703125,14.85463,12.88668703125,14.74413,12.83694703125C14.34483,12.65512703125,13.94201,12.47638803125,13.54976,12.28444403125C13.27901,12.15237303125,13.00342,12.15501403125,12.73444,12.28620503125C12.357595,12.46978403125,11.971507,12.64015703125,11.58982,12.81668703125C11.556803,12.83165703125,11.523345,12.84530703125,11.488566,12.85675703125C11.4401396,12.87303703125,11.4128448,12.86027703125,11.4035996,12.81801703125C11.400674,12.79804703125,11.3996421,12.77785703125,11.400518,12.75769703125C11.4025992,12.67200703125,11.3961099,12.58632703125,11.38114743,12.50192203125C11.350771,12.36324703125,11.4357371,12.26199203125,11.574852,12.18715103125C11.71837,12.11011003125,11.877736,12.05596103125,12.026537,11.98640303125C12.270869,11.87194103125,12.51828,11.76100103125,12.76041,11.64301753125C12.98493,11.53383864125,13.2121,11.50302203125,13.45159,11.60867883125C13.5524,11.65314303125,13.65189,11.70024803125,13.75227,11.74647303125L14.74192,12.199478031249999C14.84054,12.24438303125,14.90173,12.30513503125,14.89645,12.40110703125C14.89337,12.45833803125,14.89645,12.51556903125,14.89645,12.57279703125L14.89557,12.57279703125L14.89557,12.57323703125Z" fill="#6AD3B2" fill-opacity="1" style="mix-blend-mode:passthrough"/></g></g></g></svg>