<svg xmlns="http://www.w3.org/2000/svg" xmlns:xlink="http://www.w3.org/1999/xlink" fill="none" version="1.1" width="8.677734375" height="8.638427734375" viewBox="0 0 8.677734375 8.638427734375"><g><g><path d="M2.799489675,4.7841709375Q2.793300605,4.7843359375,2.787109375,4.7843359375Q2.741310875,4.7843359375,2.696392375,4.7754009375Q2.651474375,4.7664659375,2.6091613750000002,4.7489399375Q2.566849375,4.7314139375,2.528769375,4.7059689375Q2.490689375,4.6805249374999995,2.458304375,4.6481409375Q2.425920375,4.6157559375,2.400476375,4.5776759375000005Q2.375031375,4.5395959375,2.357505375,4.4972839375Q2.339979375,4.4549709375,2.331044375,4.4100529375Q2.322109375,4.3651344375,2.322109375,4.3193359375Q2.322109375,4.2735374375,2.331044375,4.2286189375Q2.339979375,4.1837009375,2.357505375,4.1413879375Q2.375031375,4.0990759375,2.400476375,4.0609959374999995Q2.425920375,4.0229159375,2.458304375,3.9905309375Q2.490689375,3.9581469375,2.528769375,3.9327029375Q2.566849375,3.9072579375,2.6091613750000002,3.8897319375Q2.651474375,3.8722059375,2.696392375,3.8632709375Q2.741310875,3.8543359375,2.787109375,3.8543359375Q2.793300605,3.8543359375,2.799489675,3.8545009375L5.873629375,3.8545009375Q5.879819375,3.8543359375,5.886009375,3.8543359375Q5.931809375,3.8543359375,5.976729375,3.8632709375Q6.021649375,3.8722059375,6.063959375,3.8897319375Q6.106269375,3.9072579375,6.144349375,3.9327029375Q6.182429375,3.9581469375,6.214819374999999,3.9905309375Q6.247199375,4.0229159375,6.272639375,4.0609959374999995Q6.298089375,4.0990759375,6.315609375,4.1413879375Q6.333139375,4.1837009375,6.342079375,4.2286189375Q6.351009375,4.2735374375,6.351009375,4.3193359375Q6.351009375,4.3651344375,6.342079375,4.4100529375Q6.333139375,4.4549709375,6.315609375,4.4972839375Q6.298089375,4.5395959375,6.272639375,4.5776759375000005Q6.247199375,4.6157559375,6.214819374999999,4.6481409375Q6.182429375,4.6805249374999995,6.144349375,4.7059689375Q6.106269375,4.7314139375,6.063959375,4.7489399375Q6.021649375,4.7664659375,5.976729375,4.7754009375Q5.931809375,4.7843359375,5.886009375,4.7843359375Q5.879819375,4.7843359375,5.873629375,4.7841709375L2.799489675,4.7841709375Z" fill-rule="evenodd" fill="#FFFFFF" fill-opacity="1"/></g><g><path d="M4.802725625,2.789968190625Q4.802890625,2.783779120625,4.802890625,2.777587890625Q4.802890625,2.731789390625,4.793955625,2.686870890625Q4.785020625,2.641952890625,4.767494625,2.5996398906250002Q4.749968625,2.557327890625,4.724523625,2.519247890625Q4.6990796249999995,2.481167890625,4.666695625,2.448782890625Q4.634310625,2.416398890625,4.5962306250000005,2.390954890625Q4.558150625,2.365509890625,4.515838625,2.347983890625Q4.473525625,2.330457890625,4.428607625,2.321522890625Q4.383689125,2.312587890625,4.337890625,2.312587890625Q4.292092125,2.312587890625,4.247173625,2.321522890625Q4.202255625,2.330457890625,4.159942625,2.347983890625Q4.117630625,2.365509890625,4.0795506249999995,2.390954890625Q4.041470625,2.416398890625,4.009085625,2.448782890625Q3.976701625,2.481167890625,3.951257625,2.519247890625Q3.925812625,2.557327890625,3.908286625,2.5996398906250002Q3.890760625,2.641952890625,3.881825625,2.686870890625Q3.872890625,2.731789390625,3.872890625,2.777587890625Q3.872890625,2.783779120625,3.873055625,2.789968190625L3.873055625,5.8486878906249995Q3.872890625,5.854877890625,3.872890625,5.861067890625Q3.872890625,5.906867890625,3.881825625,5.951787890625Q3.890760625,5.996707890625,3.908286625,6.039017890625Q3.925812625,6.0813278906249995,3.951257625,6.119407890625Q3.976701625,6.157487890625,4.009085625,6.1898778906250005Q4.041470625,6.222257890625,4.0795506249999995,6.247707890625Q4.117630625,6.273147890624999,4.159942625,6.290677890625Q4.202255625,6.308197890624999,4.247173625,6.317137890625Q4.292092125,6.326067890625,4.337890625,6.326067890625Q4.383689125,6.326067890625,4.428607625,6.317137890625Q4.473525625,6.308197890624999,4.515838625,6.290677890625Q4.558150625,6.273147890624999,4.5962306250000005,6.247707890625Q4.634310625,6.222257890625,4.666695625,6.1898778906250005Q4.6990796249999995,6.157487890625,4.724523625,6.119407890625Q4.749968625,6.0813278906249995,4.767494625,6.039017890625Q4.785020625,5.996707890625,4.793955625,5.951787890625Q4.802890625,5.906867890625,4.802890625,5.861067890625Q4.802890625,5.854877890625,4.802725625,5.8486878906249995L4.802725625,2.789968190625Z" fill-rule="evenodd" fill="#FFFFFF" fill-opacity="1"/></g><g><path d="M0.000008750000000001812,3.16289375L0.000008750000000001812,5.47550375Q0.000008750000000001812,7.11411375,0.76644075,7.87672375Q1.53191375,8.63839375,3.17638375,8.63839375L5.50055375,8.63839375Q7.14503375,8.63838375,7.91050375,7.87672375Q8.67693375,7.11411375,8.67693375,5.47550375L8.67693375,3.16289375Q8.67693375,1.52428375,7.91050375,0.76166975Q7.14503375,0.000008750000000001812,5.50055375,0.000008750000000001812L3.17638375,0.000008750000000001812Q1.53191375,0.000008750000000001812,0.76644075,0.76166975Q0.000008750000000001812,1.52429375,0.000008750000000001812,3.16289375ZM1.42217575,7.21771375Q0.92967875,6.72766375,0.92967875,5.47550375L0.92967875,3.16289375Q0.92967875,1.91073375,1.42217575,1.42068275Q1.91563375,0.92967875,3.17638375,0.92967875L5.50055375,0.92967875Q6.76130375,0.92967875,7.25476375,1.42068275Q7.74726375,1.91073375,7.74726375,3.16289375L7.74726375,5.47550375Q7.74726375,6.72766375,7.25476375,7.21771375Q6.76130375,7.70872375,5.50055375,7.70872375L3.17638375,7.70872375Q1.91563375,7.70872375,1.42217575,7.21771375Z" fill-rule="evenodd" fill="#FFFFFF" fill-opacity="1"/></g></g></svg>