<svg xmlns="http://www.w3.org/2000/svg" xmlns:xlink="http://www.w3.org/1999/xlink" fill="none" version="1.1" width="24" height="24" viewBox="0 0 24 24"><g><g><g><g><path d="M20.166665373069762,5.1862309730697636Q19.858895373069764,4.899218173069763,19.516725373069765,4.613775973069763Q16.183696373069765,1.8333336730697631,11.999999373069762,1.8333333730697632Q7.768806773069763,1.8333333730697632,4.797332873069763,4.813038573069763Q1.833333973069763,7.785248173069763,1.833333973069763,11.999999373069762L1.8335333430697633,11.999999373069762Q1.8335334030697632,12.098470073069763,1.8527442830697631,12.195050573069762Q1.8719551530697633,12.291629173069763,1.9096386430697632,12.382604973069764Q1.9473221330697632,12.473580673069764,2.002030073069763,12.555457473069763Q2.056738023069763,12.637333273069764,2.126368043069763,12.706963873069764Q2.195998073069763,12.776593573069762,2.2778742930697633,12.831301073069763Q2.359750513069763,12.886008373069764,2.450726513069763,12.923692373069763Q2.541702483069763,12.961375373069764,2.6382820730697634,12.980587373069763Q2.734861664069763,12.999799373069763,2.833333373069763,12.999799373069763Q2.931805082069763,12.999799373069763,3.028384673069763,12.980588373069763Q3.124964263069763,12.961376373069763,3.2159402330697633,12.923693373069764Q3.3069162330697632,12.886009373069763,3.388792453069763,12.831302073069763Q3.4706686730697633,12.776593573069762,3.5402987030697632,12.706963873069764Q3.609928723069763,12.637333273069764,3.664636613069763,12.555457473069763Q3.7193445530697633,12.473580673069764,3.7570280430697633,12.382604973069764Q3.794711593069763,12.291629173069763,3.8139224630697632,12.195049673069763Q3.833133343069763,12.098470073069763,3.833133403069763,11.999999373069762L3.8333340730697634,11.999999373069762Q3.8333340730697634,8.612055173069763,6.213501073069763,6.225294973069763Q8.598855373069764,3.833333373069763,11.999999373069762,3.833333373069763Q15.459012373069763,3.8333337730697634,18.235564373069764,6.149557273069763Q18.705838373069763,6.541863773069763,19.094413373069763,6.929999673069763L17.096664373069764,6.929999673069763L17.096664373069764,6.930199473069763Q16.998192373069763,6.930199473069763,16.901612373069764,6.9494102730697636Q16.805032373069764,6.968621173069764,16.714055373069762,7.006304573069763Q16.623079373069764,7.043988073069763,16.541203373069763,7.098696073069763Q16.459328373069763,7.153403673069763,16.389698373069763,7.223033773069763Q16.32006737306976,7.2926639730697635,16.265359373069764,7.374539773069763Q16.210651373069766,7.456415973069763,16.172969373069762,7.547392273069764Q16.135285373069763,7.638367973069763,16.116075373069762,7.734948073069763Q16.096864373069764,7.831528073069763,16.09686537306976,7.929999673069763Q16.096864373069764,8.028471373069763,16.116075373069762,8.125050873069764Q16.135285373069763,8.221630473069762,16.172969373069762,8.312606173069764Q16.210652373069763,8.403581973069763,16.26536037306976,8.485458273069764Q16.320068373069763,8.567334573069763,16.389699373069764,8.636964673069762Q16.459329373069764,8.706594373069763,16.541204373069764,8.761302373069764Q16.62308037306976,8.816009873069763,16.714056373069763,8.853693873069762Q16.805032373069764,8.891377773069763,16.901612373069764,8.910588573069763Q16.998192373069763,8.929799473069764,17.096664373069764,8.929799873069763L17.096664373069764,8.929999673069762L21.166665373069762,8.929999673069762Q21.265157373069762,8.929999673069762,21.361754373069765,8.910785073069764Q21.458352373069765,8.891569473069763,21.549348373069762,8.853878873069764Q21.640340373069762,8.816187773069764,21.722234373069764,8.761469273069764Q21.804126373069764,8.706749773069763,21.873771373069765,8.637105773069763Q21.943414373069764,8.567461873069764,21.99813237306976,8.485569373069763Q22.05285237306976,8.403676373069764,22.090543373069764,8.312682473069763Q22.128236373069765,8.221688173069763,22.147450373069763,8.125089573069763Q22.166665373069762,8.028490473069763,22.166665373069762,7.929999673069763L22.166665373069762,3.346666633069763L22.166465373069762,3.346666633069763Q22.166463373069764,3.248194933069763,22.14725237306976,3.151615323069763Q22.128041373069763,3.0550357130697634,22.090358373069762,2.964059723069763Q22.052674373069763,2.873083740069763,21.997968373069764,2.7912075150697633Q21.943259373069765,2.7093312930697633,21.873630373069762,2.6397012730697633Q21.804000373069762,2.570071283069763,21.722123373069763,2.515363333069763Q21.640246373069765,2.460655393069763,21.549270373069763,2.4229719030697634Q21.458295373069763,2.3852884130697634,21.361716373069765,2.3660775130697633Q21.265138373069764,2.346866633069763,21.166665373069762,2.3468666030697634Q21.068192373069763,2.346866633069763,20.971612373069764,2.366077543069763Q20.875031373069763,2.3852884130697634,20.784057373069764,2.4229719030697634Q20.693080373069762,2.460655393069763,20.611203373069763,2.515363333069763Q20.529328373069763,2.570071283069763,20.459699373069764,2.6397012730697633Q20.390069373069764,2.7093312930697633,20.335359373069764,2.791207518069763Q20.280652373069763,2.873083740069763,20.242967373069764,2.964059723069763Q20.205285373069763,3.0550357130697634,20.186074373069765,3.151615323069763Q20.166863373069763,3.248194933069763,20.166865373069765,3.346666633069763L20.166665373069762,3.346666633069763L20.166665373069762,5.1862309730697636ZM20.166865373069765,11.999999373069762Q20.166863373069763,11.901526773069763,20.186074373069765,11.804948173069763Q20.205285373069763,11.708367673069763,20.242969373069762,11.617391973069763Q20.280652373069763,11.526416173069764,20.335361373069762,11.444540373069763Q20.390069373069764,11.362664573069763,20.459699373069764,11.293033973069763Q20.529328373069763,11.223403373069763,20.611203373069763,11.168695773069762Q20.693080373069762,11.113988273069763,20.784057373069764,11.076304773069763Q20.875031373069763,11.038621273069763,20.971612373069764,11.019410473069764Q21.068192373069763,11.000199673069764,21.166665373069762,11.000199673069764Q21.265138373069764,11.000199673069764,21.361716373069765,11.019410473069764Q21.458295373069763,11.038621273069763,21.549272373069762,11.076304773069763Q21.640248373069763,11.113988273069763,21.722123373069763,11.168695773069762Q21.804000373069762,11.223403373069763,21.873630373069762,11.293033973069763Q21.943259373069765,11.362664573069763,21.997968373069764,11.444539473069764Q22.052674373069763,11.526416173069764,22.090358373069762,11.617391973069763Q22.128041373069763,11.708367673069763,22.14725237306976,11.804947273069763Q22.166463373069764,11.901526773069763,22.166465373069762,11.999999373069762L22.166665373069762,12.000004173069764Q22.166665373069762,16.209216373069765,19.187940373069765,19.187940373069765Q16.20921237306976,22.166665373069762,11.999999373069762,22.166665373069762Q8.451548473069764,22.166665373069762,5.3560865730697635,19.359036373069763Q5.093440873069763,19.120812373069764,4.850833273069763,18.881778373069764L4.850833273069763,20.653333373069763L4.8506332730697626,20.653333373069763Q4.850633073069764,20.751803373069762,4.831422173069763,20.848382373069764Q4.812211273069764,20.944962373069764,4.774527773069764,21.035937373069764Q4.736844273069763,21.126912373069764,4.682136273069763,21.208789373069763Q4.627428373069764,21.29066637306976,4.557798473069763,21.360297373069763Q4.488168473069763,21.429927373069763,4.406292273069763,21.484633373069762Q4.324416073069763,21.539342373069765,4.233440073069763,21.577025373069763Q4.142464073069763,21.614709373069765,4.045884373069763,21.633920373069763Q3.9493047730697635,21.653131373069762,3.850833173069763,21.653132373069763Q3.7523614130697633,21.653131373069762,3.6557818630697634,21.633920373069763Q3.5592021930697633,21.614709373069765,3.4682261930697633,21.577025373069763Q3.3772502530697635,21.539342373069765,3.2953740030697634,21.484635373069764Q3.2134978130697633,21.429927373069763,3.143867793069763,21.360297373069763Q3.074237763069763,21.29066637306976,3.0195298230697634,21.208789373069763Q2.9648218730697633,21.126912373069764,2.9271383880697632,21.035937373069764Q2.889454901069763,20.944962373069764,2.8702440260697633,20.848382373069764Q2.851033151069763,20.751803373069762,2.851033151069763,20.653333373069763L2.8508331380697634,20.653333373069763L2.8508331380697634,16.070000373069764Q2.8508331370697633,15.971507373069763,2.870047852069763,15.874908373069763Q2.889262572069763,15.778309373069764,2.9269535990697633,15.687315373069763Q2.964644623069763,15.596320373069764,3.0193635230697633,15.514428373069762Q3.074082403069763,15.432536373069762,3.1437263530697632,15.362892373069764Q3.2133703230697632,15.293248373069764,3.2952628730697633,15.238529373069763Q3.377155483069763,15.183810373069763,3.468149663069763,15.146119373069762Q3.559143903069763,15.108429373069763,3.655742763069763,15.089214373069764Q3.7523417430697634,15.070000373069764,3.850833173069763,15.070000373069764L7.994166273069763,15.070000373069764L7.994166273069763,15.070200373069763Q8.092637373069763,15.070200373069763,8.189216973069763,15.089410373069763Q8.285796573069764,15.108621373069763,8.376772773069764,15.146304373069762Q8.467748973069764,15.183988373069763,8.549625273069763,15.238695373069763Q8.631501573069762,15.293404373069762,8.701131673069764,15.363034373069762Q8.770761873069763,15.432664373069763,8.825469373069764,15.514541373069763Q8.880177373069763,15.596416373069763,8.917860873069763,15.687392373069763Q8.955544873069762,15.778368373069764,8.974755673069764,15.874948373069763Q8.993966473069763,15.971528373069763,8.993966473069763,16.070000373069764Q8.993966473069763,16.168471373069764,8.974755673069764,16.265050373069762Q8.955544373069763,16.36162937306976,8.917860373069763,16.452605373069765Q8.880176873069763,16.543580373069766,8.825469373069764,16.625457373069764Q8.770761373069764,16.707333373069766,8.701131273069763,16.776963373069762Q8.631501073069764,16.846593373069766,8.549624773069763,16.901300373069763Q8.467748473069763,16.956008373069764,8.376772773069764,16.993692373069763Q8.285796573069764,17.031377373069763,8.189216973069763,17.050588373069765Q8.092637373069763,17.069798373069766,7.994166273069763,17.069799373069763L7.994166273069763,17.070000373069764L5.877102473069764,17.070000373069764Q6.252786273069763,17.472227373069764,6.699746973069763,17.877627373069764Q9.223452973069763,20.166665373069762,11.999999373069762,20.166665373069762Q15.380784373069764,20.166665373069762,17.773726373069763,17.773725373069762Q20.166665373069762,15.380788373069763,20.166665373069762,12.000004173069764L20.166865373069765,12.000004173069764L20.166865373069765,11.999999373069762Z" fill-rule="evenodd" fill="#FFFFFF" fill-opacity="1"/></g></g></g></g></svg>