<svg xmlns="http://www.w3.org/2000/svg" xmlns:xlink="http://www.w3.org/1999/xlink" fill="none" version="1.1" width="15" height="15.000000953674316" viewBox="0 0 15 15.000000953674316"><defs><clipPath id="master_svg0_159_5380"><rect x="0" y="0" width="15" height="15.000000953674316" rx="0"/></clipPath></defs><g clip-path="url(#master_svg0_159_5380)"><g><path d="M14.9505,7.475Q14.9505,7.6585,14.9415,7.84178Q14.9325,8.02506,14.9145,8.20768Q14.8965,8.3903,14.8696,8.57181Q14.8427,8.75332,14.8069,8.9333Q14.7711,9.11327,14.7265,9.29128Q14.6819,9.46928,14.6286,9.64488Q14.5753,9.82048,14.5135,9.99325Q14.4517,10.166,14.3815,10.3356Q14.3113,10.5051,14.2328,10.671Q14.1543,10.8369,14.0678,10.9987Q13.9813,11.1605,13.887,11.3179Q13.7926,11.4753,13.6907,11.6279Q13.5887,11.7805,13.4794,11.9279Q13.3701,12.0752,13.2537,12.2171Q13.1373,12.3589,13.014,12.4949Q12.8908,12.6309,12.761,12.7606Q12.6313,12.8904,12.4953,13.0136Q12.3594,13.1368,12.2175,13.2533Q12.0756,13.3697,11.9283,13.479Q11.7809,13.5883,11.6283,13.6902Q11.4757,13.7922,11.3183,13.8865Q11.1609,13.9809,10.9991,14.0674Q10.8372,14.1539,10.6713,14.2323Q10.5054,14.3108,10.3359,14.381Q10.1664,14.4512,9.99358,14.513Q9.8208,14.5749,9.6452,14.6281Q9.46959,14.6814,9.29159,14.726Q9.11358,14.7706,8.9336,14.8064Q8.75362,14.8422,8.5721,14.8691Q8.39058,14.896,8.20795,14.914Q8.02533,14.932,7.84204,14.941Q7.65876,14.95,7.47525,14.95Q7.29174,14.95,7.10846,14.941Q6.92517,14.932,6.74255,14.914Q6.55992,14.896,6.3784,14.8691Q6.19688,14.8422,6.0169,14.8064Q5.83692,14.7706,5.65891,14.726Q5.4809,14.6814,5.3053,14.6281Q5.12969,14.5749,4.95691,14.513Q4.78413,14.4512,4.61459,14.381Q4.44506,14.3108,4.27917,14.2323Q4.11328,14.1539,3.95144,14.0674Q3.7896,13.9809,3.6322,13.8865Q3.4748,13.7922,3.32222,13.6902Q3.16964,13.5883,3.02225,13.479Q2.87485,13.3697,2.733,13.2533Q2.59115,13.1368,2.45518,13.0136Q2.31921,12.8904,2.18945,12.7606Q2.05969,12.6309,1.93646,12.4949Q1.81322,12.3589,1.6968,12.2171Q1.58039,12.0752,1.47107,11.9279Q1.36176,11.7805,1.25981,11.6279Q1.15786,11.4753,1.06351,11.3179Q0.969173,11.1605,0.882668,10.9987Q0.796163,10.8369,0.717704,10.671Q0.639245,10.5051,0.569019,10.3356Q0.498794,10.166,0.436973,9.99325Q0.375151,9.82048,0.321882,9.64488Q0.268612,9.46928,0.224024,9.29128Q0.179435,9.11327,0.143635,8.9333Q0.107834,8.75332,0.0809083,8.57181Q0.0539822,8.3903,0.0359954,8.20768Q0.0180085,8.02506,0.00900427,7.84178Q0,7.6585,0,7.475Q0,7.2915,0.00900427,7.10822Q0.0180085,6.92494,0.0359954,6.74232Q0.0539822,6.5597,0.0809083,6.37819Q0.107834,6.19667,0.143635,6.0167Q0.179435,5.83673,0.224024,5.65872Q0.268612,5.48072,0.321882,5.30512Q0.375151,5.12952,0.436973,4.95675Q0.498794,4.78397,0.569019,4.61444Q0.639245,4.44491,0.717704,4.27903Q0.796163,4.11314,0.882668,3.95131Q0.969173,3.78948,1.06351,3.63208Q1.15786,3.47469,1.25981,3.32211Q1.36176,3.16954,1.47107,3.02215Q1.58039,2.87476,1.6968,2.73291Q1.81322,2.59106,1.93646,2.4551Q2.05969,2.31913,2.18945,2.18938Q2.31921,2.05962,2.45518,1.93639Q2.59115,1.81316,2.733,1.69675Q2.87485,1.58033,3.02225,1.47102Q3.16964,1.36171,3.32222,1.25976Q3.4748,1.15782,3.6322,1.06348Q3.7896,0.96914,3.95144,0.882638Q4.11328,0.796137,4.27917,0.71768Q4.44506,0.639223,4.61459,0.569Q4.78413,0.498778,4.95691,0.436958Q5.12969,0.375138,5.3053,0.321871Q5.4809,0.268603,5.65891,0.224016Q5.83692,0.179429,6.0169,0.14363Q6.19688,0.107831,6.3784,0.0809056Q6.55992,0.0539804,6.74255,0.0359942Q6.92517,0.0180079,7.10846,0.00900396Q7.29174,0,7.47525,0Q7.65876,0,7.84204,0.00900396Q8.02533,0.0180079,8.20795,0.0359942Q8.39058,0.0539804,8.5721,0.0809056Q8.75362,0.107831,8.9336,0.14363Q9.11358,0.179429,9.29159,0.224016Q9.46959,0.268603,9.6452,0.321871Q9.8208,0.375138,9.99358,0.436958Q10.1664,0.498778,10.3359,0.569Q10.5054,0.639223,10.6713,0.71768Q10.8372,0.796137,10.9991,0.882638Q11.1609,0.96914,11.3183,1.06348Q11.4757,1.15782,11.6283,1.25976Q11.7809,1.36171,11.9283,1.47102Q12.0756,1.58033,12.2175,1.69675Q12.3594,1.81316,12.4953,1.93639Q12.6313,2.05962,12.761,2.18938Q12.8908,2.31913,13.014,2.4551Q13.1373,2.59106,13.2537,2.73291Q13.3701,2.87476,13.4794,3.02215Q13.5887,3.16954,13.6907,3.32211Q13.7926,3.47469,13.887,3.63208Q13.9813,3.78948,14.0678,3.95131Q14.1543,4.11314,14.2328,4.27903Q14.3113,4.44491,14.3815,4.61444Q14.4517,4.78397,14.5135,4.95675Q14.5753,5.12952,14.6286,5.30512Q14.6819,5.48072,14.7265,5.65872Q14.7711,5.83673,14.8069,6.0167Q14.8427,6.19667,14.8696,6.37819Q14.8965,6.5597,14.9145,6.74232Q14.9325,6.92494,14.9415,7.10822Q14.9505,7.2915,14.9505,7.475Z" fill="#F0F0F0" fill-opacity="1" style="mix-blend-mode:passthrough"/></g><g><path d="M14.4855,10.075C14.786,9.265,14.9505,8.39,14.9505,7.475C14.9505,6.5600000000000005,14.786,5.6850000000000005,14.4855,4.875L0.4655,4.875C0.165,5.685001,0,6.5600000000000005,0,7.475C0,8.39,0.165,9.265,0.465,10.075L7.475,10.725L14.4855,10.075Z" fill="#0A4FA2" fill-opacity="1" style="mix-blend-mode:passthrough"/></g><g><path d="M7.47484375,14.9501953125C10.68834375,14.9501953125,13.42884375,12.9221953125,14.48484375,10.0751953125L0.46484375,10.0751953125C1.52034375,12.9221953125,4.2603437500000005,14.9501953125,7.47484375,14.9501953125Z" fill="#CB1428" fill-opacity="1" style="mix-blend-mode:passthrough"/></g></g></svg>