<svg xmlns="http://www.w3.org/2000/svg" xmlns:xlink="http://www.w3.org/1999/xlink" fill="none" version="1.1" width="20" height="20" viewBox="0 0 20 20"><g><g><g><g><path d="M19.08441013088226,7.9786864123535155Q19.082510130882262,5.048166412353515,17.012810130882265,2.9854364123535158Q14.943210130882264,0.9229164123535156,12.021910130882263,0.9229164123535156Q9.099760130882263,0.9229164123535156,7.037630130882263,2.9850464123535154Q4.188820130882263,5.820026412353515,5.159230130882263,9.630116412353516L1.5451471308822633,13.244316412353516Q0.7754601308822632,14.037316412353515,0.9320021308822631,15.110616412353515L1.1836021308822633,16.938316412353515Q1.436055130882263,18.590716412353515,3.0727501308822633,18.818016412353515L4.8834401308822635,19.067116412353517Q6.002770130882263,19.230416412353517,6.763100130882263,18.447516412353515L10.376250130882264,14.842116412353516Q14.159810130882263,15.820216412353515,17.022010130882265,12.972016412353515Q19.086310130882264,10.907736412353515,19.08441013088226,7.9786864123535155ZM12.021910130882263,2.4229164123535156Q14.323410130882262,2.4229164123535156,15.953910130882264,4.0478964123535155Q17.58291013088226,5.671376412353515,17.58441013088226,7.979646412353516Q17.58591013088226,10.286816412353515,15.961310130882262,11.911316412353516Q13.577610130882263,14.283516412353515,10.382200130882262,13.284216412353516Q10.284290130882264,13.253616412353516,10.181760130882264,13.250416412353516Q10.079230130882264,13.247116412353515,9.979610130882262,13.271616412353515Q9.879980130882263,13.296016412353517,9.790580130882264,13.346316412353517Q9.701180130882264,13.396616412353515,9.628570130882263,13.469116412353516L5.703570130882263,17.385816412353513Q5.4608601308822635,17.635516412353518,5.099900130882263,17.582816412353516L3.2772501308822632,17.332016412353518Q2.7499701308822635,17.258816412353518,2.666400130882263,16.711716412353518L2.417997130882263,14.906116412353516Q2.366370130882263,14.551916412353515,2.6215191308822634,14.289016412353515L6.530330130882263,10.380326412353515Q6.602630130882263,10.308036412353516,6.652930130882263,10.219026412353516Q6.703240130882263,10.130016412353516,6.727880130882263,10.030786412353516Q6.752530130882263,9.931566412353515,6.749720130882263,9.829356412353516Q6.746900130882263,9.727156412353516,6.716830130882263,9.629436412353517Q5.725350130882263,6.407126412353516,8.095700130882264,4.048286412353516Q9.721080130882264,2.4229164123535156,12.021910130882263,2.4229164123535156Z" fill-rule="evenodd" fill="#9FA5D7" fill-opacity="1"/></g><g><path d="M5.2113366746139524,15.105329809265136Q5.105847674613953,14.999840809265137,5.048756674613952,14.862011809265137Q4.991666674613953,14.724183809265137,4.991666674613953,14.574999809265137Q4.991666674613953,14.501131309265137,5.006077674613953,14.428681809265136Q5.0204886746139525,14.356232809265137,5.048756674613952,14.287986809265137Q5.077025674613953,14.219741809265138,5.118064674613953,14.158321809265138Q5.159103674613952,14.096902809265137,5.2113366746139524,14.044669809265137Q5.263569674613953,13.992436809265136,5.3249886746139525,13.951397809265137Q5.386408674613953,13.910358809265137,5.454653674613953,13.882089809265137Q5.522899674613953,13.853821809265137,5.595348674613953,13.839410809265136Q5.667798174613953,13.824999809265137,5.741666674613953,13.824999809265137Q5.890850674613953,13.824999809265137,6.028679674613953,13.882089809265137Q6.166507674613952,13.939180809265137,6.271996674613953,14.044669809265137L8.188506674613953,15.961179809265136L8.188666674613952,15.961339809265137Q8.294156674613953,16.066829809265137,8.351246674613952,16.20464980926514Q8.408336674613953,16.342479809265136,8.408336674613953,16.491669809265137Q8.408336674613953,16.565539809265136,8.393916674613953,16.637979809265136Q8.379506674613953,16.710429809265136,8.351246674613952,16.778679809265135Q8.322976674613953,16.846919809265138,8.281936674613952,16.908339809265136Q8.240896674613953,16.96975980926514,8.188666674613952,17.021999809265136Q8.136426674613952,17.074229809265137,8.075006674613952,17.115269809265136Q8.013586674613952,17.15630980926514,7.945346674613953,17.184579809265138Q7.877096674613952,17.212839809265137,7.804646674613952,17.227259809265135Q7.732196674613952,17.241669809265137,7.6583366746139525,17.241669809265137Q7.509146674613953,17.241669809265137,7.3713166746139525,17.184579809265138Q7.233486674613952,17.127489809265136,7.128006674613952,17.021999809265136L7.127706674613952,17.021699809265137L5.2113366746139524,15.105329809265136Z" fill-rule="evenodd" fill="#9FA5D7" fill-opacity="1"/></g><g><path d="M13.49754432674408,6.502453507720947Q12.91176432674408,5.916666507720947,12.08333432674408,5.916666507720947Q11.25490732674408,5.916666507720947,10.66912032674408,6.502452507720947Q10.08333432674408,7.088239507720948,10.08333432674408,7.916666507720947Q10.08333432674408,8.745096507720948,10.66912032674408,9.330876507720948Q11.25490732674408,9.916666507720947,12.08333432674408,9.916666507720947Q12.91176432674408,9.916666507720947,13.49754432674408,9.330876507720948Q14.08333432674408,8.745096507720948,14.08333432674408,7.916666507720947Q14.08333432674408,7.088239507720948,13.49754432674408,6.502453507720947ZM11.72978132674408,7.5631135077209475Q11.87622432674408,7.416666507720947,12.08333432674408,7.416666507720947Q12.29044432674408,7.416666507720947,12.43688432674408,7.5631135077209475Q12.58333432674408,7.709556507720947,12.58333432674408,7.916666507720947Q12.58333432674408,8.123776507720947,12.43688432674408,8.270216507720948Q12.29044432674408,8.416666507720947,12.08333432674408,8.416666507720947Q11.87622432674408,8.416666507720947,11.72978132674408,8.270216507720948Q11.58333432674408,8.123776507720947,11.58333432674408,7.916666507720947Q11.58333432674408,7.709556507720947,11.72978132674408,7.5631135077209475Z" fill-rule="evenodd" fill="#9FA5D7" fill-opacity="1"/></g></g></g></g></svg>