<svg xmlns="http://www.w3.org/2000/svg" xmlns:xlink="http://www.w3.org/1999/xlink" fill="none" version="1.1" width="13.41796875" height="13.4189453125" viewBox="0 0 13.41796875 13.4189453125"><g><g style="opacity:0.5019999742507935;"><path d="M8.384765625,11.74169921875C8.384765625,11.74169921875,10.062215625,11.74169921875,10.062215625,11.74169921875C10.062215625,11.74169921875,10.062215625,13.41894921875,10.062215625,13.41894921875C10.062215625,13.41894921875,8.384765625,13.41894921875,8.384765625,13.41894921875C8.384765625,13.41894921875,8.384765625,11.74169921875,8.384765625,11.74169921875Z" fill="#0074BF" fill-opacity="1"/></g><g style="opacity:0.7020000219345093;"><path d="M6.70847,11.74169921875C6.70847,11.74169921875,8.3857,11.74169921875,8.3857,11.74169921875C8.3857,11.74169921875,8.3857,13.41894921875,8.3857,13.41894921875C8.3857,13.41894921875,6.70847,13.41894921875,6.70847,13.41894921875C6.70847,13.41894921875,6.70847,11.74169921875,6.70847,11.74169921875ZM5.03125,11.74169921875C5.03125,11.74169921875,6.70847,11.74169921875,6.70847,11.74169921875C6.70847,11.74169921875,6.70847,13.41894921875,6.70847,13.41894921875C6.70847,13.41894921875,5.03125,13.41894921875,5.03125,13.41894921875C5.03125,13.41894921875,5.03125,11.74169921875,5.03125,11.74169921875Z" fill="#0074BF" fill-opacity="1"/></g><g style="opacity:0.5019999742507935;"><path d="M3.35546875,11.74169921875C3.35546875,11.74169921875,5.03291875,11.74169921875,5.03291875,11.74169921875C5.03291875,11.74169921875,5.03291875,13.41894921875,5.03291875,13.41894921875C5.03291875,13.41894921875,3.35546875,13.41894921875,3.35546875,13.41894921875C3.35546875,13.41894921875,3.35546875,11.74169921875,3.35546875,11.74169921875Z" fill="#0074BF" fill-opacity="1"/></g><g style="opacity:0.7020000219345093;"><path d="M10.0625,10.064453125C10.0625,10.064453125,11.73995,10.064453125,11.73995,10.064453125C11.73995,10.064453125,11.73995,11.741923125,11.73995,11.741923125C11.73995,11.741923125,10.0625,11.741923125,10.0625,11.741923125C10.0625,11.741923125,10.0625,10.064453125,10.0625,10.064453125Z" fill="#0082BF" fill-opacity="1"/></g><g style="opacity:0.800000011920929;"><path d="M8.384765625,10.064453125C8.384765625,10.064453125,10.062215625,10.064453125,10.062215625,10.064453125C10.062215625,10.064453125,10.062215625,11.741923125,10.062215625,11.741923125C10.062215625,11.741923125,8.384765625,11.741923125,8.384765625,11.741923125C8.384765625,11.741923125,8.384765625,10.064453125,8.384765625,10.064453125Z" fill="#0082BF" fill-opacity="1"/></g><g><path d="M6.70847,10.064453125C6.70847,10.064453125,8.3857,10.064453125,8.3857,10.064453125C8.3857,10.064453125,8.3857,11.741923125,8.3857,11.741923125C8.3857,11.741923125,6.70847,11.741923125,6.70847,11.741923125C6.70847,11.741923125,6.70847,10.064453125,6.70847,10.064453125ZM5.03125,10.064453125C5.03125,10.064453125,6.70847,10.064453125,6.70847,10.064453125C6.70847,10.064453125,6.70847,11.741923125,6.70847,11.741923125C6.70847,11.741923125,5.03125,11.741923125,5.03125,11.741923125C5.03125,11.741923125,5.03125,10.064453125,5.03125,10.064453125Z" fill="#0082BF" fill-opacity="1"/></g><g style="opacity:0.800000011920929;"><path d="M3.35546875,10.064453125C3.35546875,10.064453125,5.03291875,10.064453125,5.03291875,10.064453125C5.03291875,10.064453125,5.03291875,11.741923125,5.03291875,11.741923125C5.03291875,11.741923125,3.35546875,11.741923125,3.35546875,11.741923125C3.35546875,11.741923125,3.35546875,10.064453125,3.35546875,10.064453125Z" fill="#0082BF" fill-opacity="1"/></g><g style="opacity:0.7020000219345093;"><path d="M1.677734375,10.064453125C1.677734375,10.064453125,3.3551843750000003,10.064453125,3.3551843750000003,10.064453125C3.3551843750000003,10.064453125,3.3551843750000003,11.741923125,3.3551843750000003,11.741923125C3.3551843750000003,11.741923125,1.677734375,11.741923125,1.677734375,11.741923125C1.677734375,11.741923125,1.677734375,10.064453125,1.677734375,10.064453125Z" fill="#0082BF" fill-opacity="1"/></g><g><g style="opacity:0.5019999742507935;"><path d="M11.740234375,8.38725471496582C11.740234375,8.38725471496582,13.417464375,8.38725471496582,13.417464375,8.38725471496582C13.417464375,8.38725471496582,13.417464375,10.06472471496582,13.417464375,10.06472471496582C13.417464375,10.06472471496582,11.740234375,10.06472471496582,11.740234375,10.06472471496582C11.740234375,10.06472471496582,11.740234375,8.38725471496582,11.740234375,8.38725471496582Z" fill="#008FBF" fill-opacity="1"/></g><g style="opacity:0.800000011920929;"><path d="M10.0625,8.38725471496582C10.0625,8.38725471496582,11.73995,8.38725471496582,11.73995,8.38725471496582C11.73995,8.38725471496582,11.73995,10.06472471496582,11.73995,10.06472471496582C11.73995,10.06472471496582,10.0625,10.06472471496582,10.0625,10.06472471496582C10.0625,10.06472471496582,10.0625,8.38725471496582,10.0625,8.38725471496582Z" fill="#008FBF" fill-opacity="1"/></g><g><path d="M8.3857,8.38725471496582C8.3857,8.38725471496582,10.06315,8.38725471496582,10.06315,8.38725471496582C10.06315,8.38725471496582,10.06315,10.06472471496582,10.06315,10.06472471496582C10.06315,10.06472471496582,8.3857,10.06472471496582,8.3857,10.06472471496582C8.3857,10.06472471496582,8.3857,8.38725471496582,8.3857,8.38725471496582ZM6.70847,8.38725471496582C6.70847,8.38725471496582,8.3857,8.38725471496582,8.3857,8.38725471496582C8.3857,8.38725471496582,8.3857,10.06472471496582,8.3857,10.06472471496582C8.3857,10.06472471496582,6.70847,10.06472471496582,6.70847,10.06472471496582C6.70847,10.06472471496582,6.70847,8.38725471496582,6.70847,8.38725471496582ZM5.03125,8.38725471496582C5.03125,8.38725471496582,6.70847,8.38725471496582,6.70847,8.38725471496582C6.70847,8.38725471496582,6.70847,10.06472471496582,6.70847,10.06472471496582C6.70847,10.06472471496582,5.03125,10.06472471496582,5.03125,10.06472471496582C5.03125,10.06472471496582,5.03125,8.38725471496582,5.03125,8.38725471496582Z" fill="#008FBF" fill-opacity="1"/></g><g><path d="M3.35546875,8.38725471496582C3.35546875,8.38725471496582,5.03291875,8.38725471496582,5.03291875,8.38725471496582C5.03291875,8.38725471496582,5.03291875,10.06472471496582,5.03291875,10.06472471496582C5.03291875,10.06472471496582,3.35546875,10.06472471496582,3.35546875,10.06472471496582C3.35546875,10.06472471496582,3.35546875,8.38725471496582,3.35546875,8.38725471496582Z" fill="#008FBF" fill-opacity="1"/></g><g style="opacity:0.800000011920929;"><path d="M1.677734375,8.38725471496582C1.677734375,8.38725471496582,3.3551843750000003,8.38725471496582,3.3551843750000003,8.38725471496582C3.3551843750000003,8.38725471496582,3.3551843750000003,10.06472471496582,3.3551843750000003,10.06472471496582C3.3551843750000003,10.06472471496582,1.677734375,10.06472471496582,1.677734375,10.06472471496582C1.677734375,10.06472471496582,1.677734375,8.38725471496582,1.677734375,8.38725471496582Z" fill="#008FBF" fill-opacity="1"/></g><g style="opacity:0.5019999742507935;"><path d="M0,8.38725471496582C0,8.38725471496582,1.67723,8.38725471496582,1.67723,8.38725471496582C1.67723,8.38725471496582,1.67723,10.06472471496582,1.67723,10.06472471496582C1.67723,10.06472471496582,0,10.06472471496582,0,10.06472471496582C0,10.06472471496582,0,8.38725471496582,0,8.38725471496582Z" fill="#008FBF" fill-opacity="1"/></g></g><g style="opacity:0.7020000219345093;"><path d="M11.740234375,6.70947265625C11.740234375,6.70947265625,13.417464375,6.70947265625,13.417464375,6.70947265625C13.417464375,6.70947265625,13.417464375,8.38672265625,13.417464375,8.38672265625C13.417464375,8.38672265625,11.740234375,8.38672265625,11.740234375,8.38672265625C11.740234375,8.38672265625,11.740234375,6.70947265625,11.740234375,6.70947265625Z" fill="#009DBF" fill-opacity="1"/></g><g><path d="M10.063369999999999,6.70947265625C10.063369999999999,6.70947265625,11.74082,6.70947265625,11.74082,6.70947265625C11.74082,6.70947265625,11.74082,8.38672265625,11.74082,8.38672265625C11.74082,8.38672265625,10.063369999999999,8.38672265625,10.063369999999999,8.38672265625C10.063369999999999,8.38672265625,10.063369999999999,6.70947265625,10.063369999999999,6.70947265625ZM8.3857,6.70947265625C8.3857,6.70947265625,10.06315,6.70947265625,10.06315,6.70947265625C10.06315,6.70947265625,10.06315,8.38672265625,10.06315,8.38672265625C10.06315,8.38672265625,8.3857,8.38672265625,8.3857,8.38672265625C8.3857,8.38672265625,8.3857,6.70947265625,8.3857,6.70947265625ZM6.70847,6.70947265625C6.70847,6.70947265625,8.3857,6.70947265625,8.3857,6.70947265625C8.3857,6.70947265625,8.3857,8.38672265625,8.3857,8.38672265625C8.3857,8.38672265625,6.70847,8.38672265625,6.70847,8.38672265625C6.70847,8.38672265625,6.70847,6.70947265625,6.70847,6.70947265625ZM5.03125,6.70947265625C5.03125,6.70947265625,6.70847,6.70947265625,6.70847,6.70947265625C6.70847,6.70947265625,6.70847,8.38672265625,6.70847,8.38672265625C6.70847,8.38672265625,5.03125,8.38672265625,5.03125,8.38672265625C5.03125,8.38672265625,5.03125,6.70947265625,5.03125,6.70947265625Z" fill="#009DBF" fill-opacity="1"/></g><g><path d="M3.355404375,6.70947265625C3.355404375,6.70947265625,5.032854374999999,6.70947265625,5.032854374999999,6.70947265625C5.032854374999999,6.70947265625,5.032854374999999,8.38672265625,5.032854374999999,8.38672265625C5.032854374999999,8.38672265625,3.355404375,8.38672265625,3.355404375,8.38672265625C3.355404375,8.38672265625,3.355404375,6.70947265625,3.355404375,6.70947265625ZM1.677734375,6.70947265625C1.677734375,6.70947265625,3.3551843750000003,6.70947265625,3.3551843750000003,6.70947265625C3.3551843750000003,6.70947265625,3.3551843750000003,8.38672265625,3.3551843750000003,8.38672265625C3.3551843750000003,8.38672265625,1.677734375,8.38672265625,1.677734375,8.38672265625C1.677734375,8.38672265625,1.677734375,6.70947265625,1.677734375,6.70947265625Z" fill="#009DBF" fill-opacity="1"/></g><g style="opacity:0.7020000219345093;"><path d="M0,6.70947265625C0,6.70947265625,1.67723,6.70947265625,1.67723,6.70947265625C1.67723,6.70947265625,1.67723,8.38672265625,1.67723,8.38672265625C1.67723,8.38672265625,0,8.38672265625,0,8.38672265625C0,8.38672265625,0,6.70947265625,0,6.70947265625Z" fill="#009DBF" fill-opacity="1"/></g><g style="opacity:0.7020000219345093;"><path d="M11.740234375,5.0322265625C11.740234375,5.0322265625,13.417464375,5.0322265625,13.417464375,5.0322265625C13.417464375,5.0322265625,13.417464375,6.7094765625,13.417464375,6.7094765625C13.417464375,6.7094765625,11.740234375,6.7094765625,11.740234375,6.7094765625C11.740234375,6.7094765625,11.740234375,5.0322265625,11.740234375,5.0322265625Z" fill="#00ABBF" fill-opacity="1"/></g><g><path d="M10.063369999999999,5.0322265625C10.063369999999999,5.0322265625,11.74082,5.0322265625,11.74082,5.0322265625C11.74082,5.0322265625,11.74082,6.7094765625,11.74082,6.7094765625C11.74082,6.7094765625,10.063369999999999,6.7094765625,10.063369999999999,6.7094765625C10.063369999999999,6.7094765625,10.063369999999999,5.0322265625,10.063369999999999,5.0322265625ZM8.3857,5.0322265625C8.3857,5.0322265625,10.06315,5.0322265625,10.06315,5.0322265625C10.06315,5.0322265625,10.06315,6.7094765625,10.06315,6.7094765625C10.06315,6.7094765625,8.3857,6.7094765625,8.3857,6.7094765625C8.3857,6.7094765625,8.3857,5.0322265625,8.3857,5.0322265625ZM6.70847,5.0322265625C6.70847,5.0322265625,8.3857,5.0322265625,8.3857,5.0322265625C8.3857,5.0322265625,8.3857,6.7094765625,8.3857,6.7094765625C8.3857,6.7094765625,6.70847,6.7094765625,6.70847,6.7094765625C6.70847,6.7094765625,6.70847,5.0322265625,6.70847,5.0322265625ZM5.03125,5.0322265625C5.03125,5.0322265625,6.70847,5.0322265625,6.70847,5.0322265625C6.70847,5.0322265625,6.70847,6.7094765625,6.70847,6.7094765625C6.70847,6.7094765625,5.03125,6.7094765625,5.03125,6.7094765625C5.03125,6.7094765625,5.03125,5.0322265625,5.03125,5.0322265625Z" fill="#00ABBF" fill-opacity="1"/></g><g><path d="M3.355404375,5.0322265625C3.355404375,5.0322265625,5.032854374999999,5.0322265625,5.032854374999999,5.0322265625C5.032854374999999,5.0322265625,5.032854374999999,6.7094765625,5.032854374999999,6.7094765625C5.032854374999999,6.7094765625,3.355404375,6.7094765625,3.355404375,6.7094765625C3.355404375,6.7094765625,3.355404375,5.0322265625,3.355404375,5.0322265625ZM1.677734375,5.0322265625C1.677734375,5.0322265625,3.3551843750000003,5.0322265625,3.3551843750000003,5.0322265625C3.3551843750000003,5.0322265625,3.3551843750000003,6.7094765625,3.3551843750000003,6.7094765625C3.3551843750000003,6.7094765625,1.677734375,6.7094765625,1.677734375,6.7094765625C1.677734375,6.7094765625,1.677734375,5.0322265625,1.677734375,5.0322265625Z" fill="#00ABBF" fill-opacity="1"/></g><g style="opacity:0.7020000219345093;"><path d="M0,5.0322265625C0,5.0322265625,1.67723,5.0322265625,1.67723,5.0322265625C1.67723,5.0322265625,1.67723,6.7094765625,1.67723,6.7094765625C1.67723,6.7094765625,0,6.7094765625,0,6.7094765625C0,6.7094765625,0,5.0322265625,0,5.0322265625Z" fill="#00ABBF" fill-opacity="1"/></g><g><g style="opacity:0.5019999742507935;"><path d="M11.740234375,3.3552236557006836C11.740234375,3.3552236557006836,13.417464375,3.3552236557006836,13.417464375,3.3552236557006836C13.417464375,3.3552236557006836,13.417464375,5.032693655700683,13.417464375,5.032693655700683C13.417464375,5.032693655700683,11.740234375,5.032693655700683,11.740234375,5.032693655700683C11.740234375,5.032693655700683,11.740234375,3.3552236557006836,11.740234375,3.3552236557006836Z" fill="#00B9BF" fill-opacity="1"/></g><g style="opacity:0.800000011920929;"><path d="M10.0625,3.3552236557006836C10.0625,3.3552236557006836,11.73995,3.3552236557006836,11.73995,3.3552236557006836C11.73995,3.3552236557006836,11.73995,5.032693655700683,11.73995,5.032693655700683C11.73995,5.032693655700683,10.0625,5.032693655700683,10.0625,5.032693655700683C10.0625,5.032693655700683,10.0625,3.3552236557006836,10.0625,3.3552236557006836Z" fill="#00B9BF" fill-opacity="1"/></g><g><path d="M8.3857,3.3552236557006836C8.3857,3.3552236557006836,10.06315,3.3552236557006836,10.06315,3.3552236557006836C10.06315,3.3552236557006836,10.06315,5.032693655700683,10.06315,5.032693655700683C10.06315,5.032693655700683,8.3857,5.032693655700683,8.3857,5.032693655700683C8.3857,5.032693655700683,8.3857,3.3552236557006836,8.3857,3.3552236557006836ZM6.70847,3.3552236557006836C6.70847,3.3552236557006836,8.3857,3.3552236557006836,8.3857,3.3552236557006836C8.3857,3.3552236557006836,8.3857,5.032693655700683,8.3857,5.032693655700683C8.3857,5.032693655700683,6.70847,5.032693655700683,6.70847,5.032693655700683C6.70847,5.032693655700683,6.70847,3.3552236557006836,6.70847,3.3552236557006836ZM5.03125,3.3552236557006836C5.03125,3.3552236557006836,6.70847,3.3552236557006836,6.70847,3.3552236557006836C6.70847,3.3552236557006836,6.70847,5.032693655700683,6.70847,5.032693655700683C6.70847,5.032693655700683,5.03125,5.032693655700683,5.03125,5.032693655700683C5.03125,5.032693655700683,5.03125,3.3552236557006836,5.03125,3.3552236557006836Z" fill="#00B9BF" fill-opacity="1"/></g><g><path d="M3.35546875,3.3552236557006836C3.35546875,3.3552236557006836,5.03291875,3.3552236557006836,5.03291875,3.3552236557006836C5.03291875,3.3552236557006836,5.03291875,5.032693655700683,5.03291875,5.032693655700683C5.03291875,5.032693655700683,3.35546875,5.032693655700683,3.35546875,5.032693655700683C3.35546875,5.032693655700683,3.35546875,3.3552236557006836,3.35546875,3.3552236557006836Z" fill="#00B9BF" fill-opacity="1"/></g><g style="opacity:0.800000011920929;"><path d="M1.677734375,3.3552236557006836C1.677734375,3.3552236557006836,3.3551843750000003,3.3552236557006836,3.3551843750000003,3.3552236557006836C3.3551843750000003,3.3552236557006836,3.3551843750000003,5.032693655700683,3.3551843750000003,5.032693655700683C3.3551843750000003,5.032693655700683,1.677734375,5.032693655700683,1.677734375,5.032693655700683C1.677734375,5.032693655700683,1.677734375,3.3552236557006836,1.677734375,3.3552236557006836Z" fill="#00B9BF" fill-opacity="1"/></g><g style="opacity:0.5019999742507935;"><path d="M0,3.3552236557006836C0,3.3552236557006836,1.67723,3.3552236557006836,1.67723,3.3552236557006836C1.67723,3.3552236557006836,1.67723,5.032693655700683,1.67723,5.032693655700683C1.67723,5.032693655700683,0,5.032693655700683,0,5.032693655700683C0,5.032693655700683,0,3.3552236557006836,0,3.3552236557006836Z" fill="#00B9BF" fill-opacity="1"/></g></g><g style="opacity:0.7020000219345093;"><path d="M10.0625,1.67724609375C10.0625,1.67724609375,11.73995,1.67724609375,11.73995,1.67724609375C11.73995,1.67724609375,11.73995,3.35471609375,11.73995,3.35471609375C11.73995,3.35471609375,10.0625,3.35471609375,10.0625,3.35471609375C10.0625,3.35471609375,10.0625,1.67724609375,10.0625,1.67724609375Z" fill="#00C6BF" fill-opacity="1"/></g><g style="opacity:0.800000011920929;"><path d="M8.384765625,1.67724609375C8.384765625,1.67724609375,10.062215625,1.67724609375,10.062215625,1.67724609375C10.062215625,1.67724609375,10.062215625,3.35471609375,10.062215625,3.35471609375C10.062215625,3.35471609375,8.384765625,3.35471609375,8.384765625,3.35471609375C8.384765625,3.35471609375,8.384765625,1.67724609375,8.384765625,1.67724609375Z" fill="#00C6BF" fill-opacity="1"/></g><g><path d="M6.70847,1.67724609375C6.70847,1.67724609375,8.3857,1.67724609375,8.3857,1.67724609375C8.3857,1.67724609375,8.3857,3.35471609375,8.3857,3.35471609375C8.3857,3.35471609375,6.70847,3.35471609375,6.70847,3.35471609375C6.70847,3.35471609375,6.70847,1.67724609375,6.70847,1.67724609375ZM5.03125,1.67724609375C5.03125,1.67724609375,6.70847,1.67724609375,6.70847,1.67724609375C6.70847,1.67724609375,6.70847,3.35471609375,6.70847,3.35471609375C6.70847,3.35471609375,5.03125,3.35471609375,5.03125,3.35471609375C5.03125,3.35471609375,5.03125,1.67724609375,5.03125,1.67724609375Z" fill="#00C6BF" fill-opacity="1"/></g><g style="opacity:0.800000011920929;"><path d="M3.35546875,1.67724609375C3.35546875,1.67724609375,5.03291875,1.67724609375,5.03291875,1.67724609375C5.03291875,1.67724609375,5.03291875,3.35471609375,5.03291875,3.35471609375C5.03291875,3.35471609375,3.35546875,3.35471609375,3.35546875,3.35471609375C3.35546875,3.35471609375,3.35546875,1.67724609375,3.35546875,1.67724609375Z" fill="#00C6BF" fill-opacity="1"/></g><g style="opacity:0.7020000219345093;"><path d="M1.677734375,1.67724609375C1.677734375,1.67724609375,3.3551843750000003,1.67724609375,3.3551843750000003,1.67724609375C3.3551843750000003,1.67724609375,3.3551843750000003,3.35471609375,3.3551843750000003,3.35471609375C3.3551843750000003,3.35471609375,1.677734375,3.35471609375,1.677734375,3.35471609375C1.677734375,3.35471609375,1.677734375,1.67724609375,1.677734375,1.67724609375Z" fill="#00C6BF" fill-opacity="1"/></g><g style="opacity:0.5019999742507935;"><path d="M8.384765625,0C8.384765625,0,10.062215625,0,10.062215625,0C10.062215625,0,10.062215625,1.67725,10.062215625,1.67725C10.062215625,1.67725,8.384765625,1.67725,8.384765625,1.67725C8.384765625,1.67725,8.384765625,0,8.384765625,0Z" fill="#00D4BF" fill-opacity="1"/></g><g style="opacity:0.7020000219345093;"><path d="M6.70847,0C6.70847,0,8.3857,0,8.3857,0C8.3857,0,8.3857,1.67725,8.3857,1.67725C8.3857,1.67725,6.70847,1.67725,6.70847,1.67725C6.70847,1.67725,6.70847,0,6.70847,0ZM5.03125,0C5.03125,0,6.70847,0,6.70847,0C6.70847,0,6.70847,1.67725,6.70847,1.67725C6.70847,1.67725,5.03125,1.67725,5.03125,1.67725C5.03125,1.67725,5.03125,0,5.03125,0Z" fill="#00D4BF" fill-opacity="1"/></g><g style="opacity:0.5019999742507935;"><path d="M3.35546875,0C3.35546875,0,5.03291875,0,5.03291875,0C5.03291875,0,5.03291875,1.67725,5.03291875,1.67725C5.03291875,1.67725,3.35546875,1.67725,3.35546875,1.67725C3.35546875,1.67725,3.35546875,0,3.35546875,0Z" fill="#00D4BF" fill-opacity="1"/></g><g><path d="M4.41263875,6.1803743749999995C4.41263875,6.1803743749999995,4.88003875,5.134244375,4.88003875,5.134244375C5.05047875,4.866164375,5.02785875,4.537614375,4.8415187500000005,4.351274375C4.83524875,4.345004375,4.82897875,4.338964375,4.82225875,4.333134375C4.81576875,4.327314375,4.8090487500000005,4.321494375,4.80232875,4.316114375C4.78857875,4.3050943749999995,4.77422875,4.294854375,4.75932875,4.2854343749999995C4.72751875,4.265864375,4.6936487499999995,4.249874375,4.65831875,4.2377343750000005C4.62293875,4.225414375,4.58642875,4.217124375,4.54925875,4.212644375C4.51207875,4.208394375,4.47445875,4.208164375,4.43727875,4.2119743750000005C4.40009875,4.215784375,4.36336875,4.223394375,4.32798875,4.235264375C4.28789875,4.247584375,4.24892875,4.263714375,4.21174875,4.282974375C4.1746187500000005,4.302414375,4.13924875,4.325044375,4.10603875,4.350604375C4.07286875,4.376394375,4.04198875,4.405024375,4.0137687500000006,4.436164375C3.98572875,4.467334375,3.96046875,4.500904375,3.9382977500000003,4.536494375C3.91634975,4.572104375,3.2984477500000002,6.029424375,3.06037975,6.700414374999999C2.82231175,7.371404375,2.91727035,8.602074375,3.83549975,9.522114375000001C4.80926875,10.495894374999999,6.21908875,10.718294375,7.11828875,10.043494375C7.12768875,10.038784374999999,7.13709875,10.033634375,7.14605875,10.028484375C7.15523875,10.023334375000001,7.16419875,10.017734375,7.17292875,10.011914375C7.18188875,10.006314374999999,7.19039875,10.000264375,7.19890875,9.993994375C7.20741875,9.987954375000001,7.21570875,9.981454375,7.22376875,9.974734375C7.22376875,9.974734375,9.99480875,7.660764375,9.99480875,7.660764375C10.12940875,7.549454375,10.328508750000001,7.320344375,10.149788749999999,7.058754375C9.97531875,6.803664375,9.644758750000001,6.977234375,9.50993875,7.063454375C9.50993875,7.063454375,7.91512875,8.223134375,7.91512875,8.223134375C7.90773875,8.229174375,7.89899875,8.233884374999999,7.88981875,8.236564375C7.88041875,8.239254375,7.87078875,8.240154375,7.86115875,8.239034375C7.85152875,8.237914374999999,7.84211875,8.234774375,7.83382875,8.230074375000001C7.82531875,8.225374375000001,7.81792875,8.218874375,7.81210875,8.211034375C7.77156875,8.161314375,7.76440875,8.029404375,7.82800875,7.977224375C7.82800875,7.977224375,10.27273875,5.902434375,10.27273875,5.902434375C10.48392875,5.712294375,10.51326875,5.435704375,10.342168749999999,5.246234375C10.175318749999999,5.060564375,9.910148750000001,5.066164375,9.69716875,5.258104375C9.69716875,5.258104375,7.49609875,6.978794375,7.49609875,6.978794375C7.48579875,6.987304375,7.47392875,6.993584375,7.46116875,6.997164375C7.44839875,7.000744375,7.43495875,7.001864375,7.42174875,7.000074375C7.40853875,6.998284375,7.39598875,6.994024375,7.38456875,6.987084375C7.37314875,6.980364375,7.36306875,6.971404375,7.35545875,6.960654375C7.31200875,6.911834375,7.29520875,6.828744374999999,7.34425875,6.779924375C7.34425875,6.779924375,9.836918749999999,4.3609043750000005,9.836918749999999,4.3609043750000005C9.88371875,4.317234375,9.921568749999999,4.264824375,9.94799875,4.206824375C9.974428750000001,4.148594375,9.98942875,4.085664375,9.991668749999999,4.021834375C9.99390875,3.958004375,9.98360875,3.894174375,9.96121875,3.834374375C9.93881875,3.774353375,9.90499875,3.719482375,9.86154875,3.672674375C9.839828749999999,3.649606375,9.81563875,3.629001375,9.78988875,3.611085375C9.763938750000001,3.593061375,9.73624875,3.577681375,9.70724875,3.565172375C9.678128749999999,3.552854375,9.64789875,3.543448375,9.61698875,3.536953375C9.58607875,3.530682375,9.55450875,3.527547375,9.52292875,3.527771375C9.49067875,3.527323375,9.45842875,3.530010375,9.426848750000001,3.536057375C9.36334875,3.547689375,9.30276875,3.571739375,9.24857875,3.6068293750000002C9.22147875,3.624298375,9.19616875,3.644455375,9.172878749999999,3.6668513750000002C9.172878749999999,3.6668513750000002,6.6257987499999995,6.059434375,6.6257987499999995,6.059434375C6.56487875,6.120354375,6.44573875,6.059434375,6.43117875,5.988214375C6.42983875,5.981944374999999,6.42938875,5.975454375,6.42960875,5.968954375C6.42983875,5.962454375,6.43095875,5.955964375000001,6.432968750000001,5.9499143750000005C6.43475875,5.943644375,6.43744875,5.937604374999999,6.44080875,5.9322243750000005C6.444168749999999,5.926624374999999,6.4481987499999995,5.921474375,6.45289875,5.916994375C6.45289875,5.916994375,8.402458750000001,3.697086375,8.402458750000001,3.697086375C8.44967875,3.653193375,8.487538749999999,3.600218375,8.51378875,3.541337375C8.54003875,3.482456375,8.55411875,3.418881375,8.555198749999999,3.354424375C8.557668750000001,3.224302375,8.50704875,3.098660375,8.41522875,3.006611375C8.32317875,2.914339475,8.19776875,2.863276205,8.06763875,2.8652918645C7.93752875,2.867307525,7.81367875,2.921954275,7.72453875,3.016914375C7.72453875,3.016914375,4.76805875,6.285634375,4.76805875,6.285634375C4.66212875,6.391574374999999,4.5060287500000005,6.396944375,4.43167875,6.335354375C4.42025875,6.326394375,4.4108487499999995,6.315204375,4.40390875,6.3026543749999995C4.39673875,6.290114375,4.39225875,6.276234375,4.39046875,6.261894375C4.38867875,6.247344375,4.38979875,6.232784375,4.39360875,6.218894375C4.39740875,6.205014375,4.40390875,6.191794375000001,4.41263875,6.1803743749999995Z" fill="#FFFFFF" fill-opacity="1"/></g></g></svg>